<svg width="24" height="24" viewBox="0 0 24 24" fill="none" xmlns="http://www.w3.org/2000/svg">
<circle opacity="0.2" cx="12" cy="12" r="11.5" fill="#7B7777" stroke="#3F3939"/>
<path d="M11.5 5.83331C12.2515 5.83331 12.9721 6.13182 13.5035 6.66318C14.0348 7.19453 14.3333 7.9152 14.3333 8.66665C14.3333 9.41809 14.0348 10.1388 13.5035 10.6701C12.9721 11.2015 12.2515 11.5 11.5 11.5C10.7486 11.5 10.0279 11.2015 9.49654 10.6701C8.96519 10.1388 8.66668 9.41809 8.66668 8.66665C8.66668 7.9152 8.96519 7.19453 9.49654 6.66318C10.0279 6.13182 10.7486 5.83331 11.5 5.83331ZM11.5 12.9166C14.6308 12.9166 17.1667 14.1846 17.1667 15.75V17.1666H5.83334V15.75C5.83334 14.1846 8.36918 12.9166 11.5 12.9166Z" fill="#3F3939"/>
</svg>
