<svg width="24" height="24" viewBox="0 0 24 24" fill="none" xmlns="http://www.w3.org/2000/svg">
<circle opacity="0.2" cx="12" cy="12" r="11.5" fill="#7B7777" stroke="#3F3939"/>
<path d="M17.8333 10.25H6.16666V9.08331C6.16666 8.61918 6.35103 8.17406 6.67922 7.84588C7.00741 7.51769 7.45253 7.33331 7.91666 7.33331H16.0833C16.5475 7.33331 16.9926 7.51769 17.3208 7.84588C17.6489 8.17406 17.8333 8.61918 17.8333 9.08331V10.25ZM17.8333 11.4166V14.9166C17.8333 15.3808 17.6489 15.8259 17.3208 16.1541C16.9926 16.4823 16.5475 16.6666 16.0833 16.6666H7.91666C7.45253 16.6666 7.00741 16.4823 6.67922 16.1541C6.35103 15.8259 6.16666 15.3808 6.16666 14.9166V11.4166H9.74016C9.86991 11.9173 10.1622 12.3607 10.5713 12.6772C10.9803 12.9937 11.4828 13.1654 12 13.1654C12.5172 13.1654 13.0197 12.9937 13.4287 12.6772C13.8377 12.3607 14.1301 11.9173 14.2598 11.4166H17.8333Z" fill="#3F3939"/>
</svg>
