<svg width="18" height="13" viewBox="0 0 18 13" fill="none" xmlns="http://www.w3.org/2000/svg">
<path d="M5.7375 6.42417C6.58598 6.39587 7.38874 6.0469 7.97198 5.45282C8.55522 4.85874 8.87201 4.06735 8.85375 3.25C8.87183 2.83931 8.80546 2.42923 8.65845 2.04333C8.51145 1.65742 8.28669 1.30328 7.99712 1.00128C7.70754 0.699272 7.35884 0.455345 6.97106 0.283513C6.58329 0.111681 6.16407 0.015331 5.7375 0C5.30997 0.0139356 4.88953 0.10926 4.50046 0.280474C4.11138 0.451687 3.76136 0.695399 3.4706 0.997549C3.17984 1.2997 2.95409 1.6543 2.80639 2.0409C2.65868 2.4275 2.59193 2.83843 2.61 3.25C2.59474 4.06837 2.91404 4.85974 3.49908 5.45351C4.08412 6.04727 4.88803 6.39588 5.7375 6.42417ZM5.7375 1.365C5.97902 1.37871 6.21529 1.43859 6.43253 1.54115C6.64976 1.64371 6.84362 1.7869 7.00279 1.96236C7.16196 2.13782 7.28326 2.34204 7.35961 2.56312C7.43596 2.78419 7.46584 3.01769 7.4475 3.25C7.46315 3.70767 7.29357 4.15329 6.97454 4.49285C6.6555 4.83241 6.21196 5.03935 5.7375 5.07C5.26304 5.03935 4.8195 4.83241 4.50046 4.49285C4.18143 4.15329 4.01185 3.70767 4.0275 3.25C4.00916 3.01769 4.03904 2.78419 4.11539 2.56312C4.19174 2.34204 4.31304 2.13782 4.47221 1.96236C4.63138 1.7869 4.82524 1.64371 5.04247 1.54115C5.25971 1.43859 5.49598 1.37871 5.7375 1.365ZM13.8262 6.83583C14.5355 6.8104 15.2055 6.51597 15.6902 6.01674C16.175 5.51751 16.435 4.85397 16.4138 4.17083C16.4381 3.48585 16.1793 2.81953 15.6943 2.31794C15.2093 1.81635 14.5375 1.52041 13.8262 1.495C13.117 1.5232 12.4481 1.82035 11.9654 2.32164C11.4828 2.82292 11.2256 3.48766 11.25 4.17083C11.2287 4.85217 11.4872 5.51412 11.9695 6.01305C12.4518 6.51198 13.119 6.80762 13.8262 6.83583ZM13.8262 2.84917C14.1636 2.87684 14.4762 3.03073 14.697 3.27782C14.9179 3.52491 15.0293 3.84551 15.0075 4.17083C15.0263 4.49435 14.9134 4.81218 14.6929 5.05691C14.4724 5.30164 14.1615 5.454 13.8262 5.48167C13.489 5.45667 13.1753 5.30546 12.9524 5.06044C12.7295 4.81542 12.6151 4.49608 12.6337 4.17083C12.612 3.84378 12.725 3.52166 12.9483 3.27427C13.1715 3.02688 13.4869 2.87415 13.8262 2.84917ZM13.7475 8.19C13.0798 8.18788 12.4207 8.33442 11.8216 8.61819C11.2224 8.90196 10.6996 9.31527 10.2937 9.82583C9.7396 9.18043 9.04326 8.66186 8.2552 8.30773C7.46714 7.95359 6.60712 7.77275 5.7375 7.77833C4.26073 7.74898 2.83123 8.28015 1.75773 9.25714C0.684221 10.2341 0.0528602 11.5785 0 13H1.40625C1.45018 11.9348 1.93063 10.9297 2.74241 10.2049C3.55418 9.48 4.63114 9.09441 5.7375 9.1325C6.84275 9.09445 7.9185 9.48037 8.72849 10.2055C9.53847 10.9307 10.0165 11.9357 10.0575 13H11.4637C11.4671 12.3731 11.3449 11.7515 11.1038 11.1692C11.3319 10.6796 11.7037 10.2649 12.1734 9.97617C12.6431 9.68744 13.1903 9.53728 13.7475 9.54417C14.4719 9.51773 15.1778 9.76831 15.711 10.2412C16.2443 10.7141 16.5616 11.3709 16.5938 12.0683V13H18V12.0683C17.9676 11.0118 17.502 10.0107 16.7051 9.28387C15.9082 8.55706 14.8448 8.16376 13.7475 8.19Z" fill="#5DA16F"/>
</svg>
