<svg width="16" height="14" viewBox="0 0 16 14" fill="none" xmlns="http://www.w3.org/2000/svg">
<path d="M13.3333 2.93023H6.4V7.83914H5.66153V6.17054C5.66068 5.22514 5.3527 4.31876 4.80518 3.65026C4.25765 2.98175 3.51529 2.60572 2.74097 2.60465H1.06667V0H0V14H1.06667V12.057L14.9333 12.1924V14H16V6.18605C15.9992 5.32285 15.718 4.49528 15.2181 3.88491C14.7181 3.27454 14.0403 2.9312 13.3333 2.93023ZM1.06667 3.90698H2.74097C3.23248 3.90766 3.7037 4.14635 4.05126 4.57068C4.39881 4.99502 4.59431 5.57035 4.59487 6.17046V7.83906H1.06667V3.90698ZM14.9333 10.89L1.06667 10.7546V9.14147H14.9333V10.89ZM14.9333 7.83914H7.46667V4.23256H13.3333C13.7575 4.23315 14.1642 4.43915 14.4642 4.80538C14.7641 5.1716 14.9328 5.66813 14.9333 6.18605V7.83914Z" fill="#5DA16F"/>
</svg>
