<svg width="26" height="26" viewBox="0 0 26 26" fill="none" xmlns="http://www.w3.org/2000/svg">
<path d="M8.66732 5.41666C8.12565 5.41666 7.58398 5.64416 7.16148 6.06666C6.73898 6.48916 6.50065 6.98749 6.50065 7.58332V10.8333C5.92648 10.8333 5.41732 11.0392 4.97315 11.4725C4.52898 11.9058 4.33398 12.4258 4.33398 13V18.4167H5.78565L6.50065 20.5833H7.58398L8.33148 18.4167H17.724L18.4173 20.5833H19.5007L20.2157 18.4167H21.6673V13C21.6673 12.4258 21.4615 11.9167 21.0282 11.4725C20.5948 11.0283 20.0748 10.8333 19.5007 10.8333V7.58332C19.5007 6.98749 19.284 6.49999 18.8398 6.06666C18.3957 5.63332 17.8757 5.41666 17.334 5.41666M8.66732 7.58332H11.9173V10.8333H8.66732M14.084 7.58332H17.334V10.8333H14.084M6.50065 13H19.5007V16.25H6.50065V13Z" fill="black"/>
</svg>
