<svg width="24" height="24" viewBox="0 0 24 24" fill="none" xmlns="http://www.w3.org/2000/svg">
<rect width="24" height="24" rx="5" fill="#9A0F0F"/>
<path d="M7.625 19C7.14375 19 6.73192 18.8369 6.3895 18.5108C6.04708 18.1847 5.87558 17.7922 5.875 17.3333V6.5H5V4.83333H9.375V4H14.625V4.83333H19V6.5H18.125V17.3333C18.125 17.7917 17.9538 18.1842 17.6114 18.5108C17.269 18.8375 16.8568 19.0006 16.375 19H7.625ZM16.375 6.5H7.625V17.3333H16.375V6.5ZM9.375 15.6667H11.125V8.16667H9.375V15.6667ZM12.875 15.6667H14.625V8.16667H12.875V15.6667Z" fill="white"/>
</svg>
