<svg width="33" height="33" viewBox="0 0 33 33" fill="none" xmlns="http://www.w3.org/2000/svg">
<path fill-rule="evenodd" clip-rule="evenodd" d="M10.0601 5.18238C14.3397 4.70792 18.6587 4.70792 22.9383 5.18238C25.4504 5.46288 27.4786 7.4415 27.7728 9.96738C28.2816 14.3083 28.2816 18.6931 27.7728 23.034C27.4772 25.5599 25.4491 27.5371 22.9383 27.819C18.6587 28.2935 14.3397 28.2935 10.0601 27.819C7.54793 27.5371 5.51981 25.5599 5.22556 23.034C4.71909 18.6932 4.71909 14.3082 5.22556 9.96738C5.51981 7.4415 7.54931 5.46288 10.0601 5.18238ZM22.7101 7.23113C18.5821 6.77357 14.4162 6.77357 10.2883 7.23113C9.52414 7.31591 8.81087 7.65583 8.26373 8.19599C7.71658 8.73615 7.36752 9.44499 7.27293 10.208C6.78389 14.3893 6.78389 18.6134 7.27293 22.7948C7.36781 23.5575 7.717 24.266 8.26412 24.8059C8.81123 25.3458 9.52435 25.6855 10.2883 25.7703C14.3817 26.2268 18.6167 26.2268 22.7101 25.7703C23.4738 25.6853 24.1866 25.3454 24.7334 24.8055C25.2803 24.2657 25.6292 23.5573 25.7241 22.7948C26.2131 18.6134 26.2131 14.3893 25.7241 10.208C25.629 9.44569 25.2798 8.73764 24.733 8.19806C24.1862 7.65848 23.4736 7.31882 22.7101 7.23388" fill="#52F39D"/>
<path d="M15.243 21.487L11 17.243L12.414 15.829L15.243 18.657L20.899 13L22.314 14.415L15.243 21.487Z" fill="#52F39D"/>
</svg>
