<svg width="33" height="33" viewBox="0 0 33 33" fill="none" xmlns="http://www.w3.org/2000/svg">
<path d="M11.6466 11.6462C11.8399 11.4531 12.1021 11.3446 12.3753 11.3446C12.6486 11.3446 12.9107 11.4531 13.1041 11.6462L16.5003 15.0425L19.8966 11.6462C19.991 11.5449 20.1048 11.4636 20.2313 11.4073C20.3578 11.3509 20.4944 11.3206 20.6329 11.3182C20.7713 11.3157 20.9089 11.3412 21.0373 11.393C21.1657 11.4449 21.2823 11.5221 21.3803 11.62C21.4782 11.718 21.5554 11.8346 21.6073 11.963C21.6591 12.0914 21.6846 12.229 21.6821 12.3674C21.6797 12.5059 21.6494 12.6425 21.593 12.769C21.5367 12.8955 21.4554 13.0093 21.3541 13.1037L17.9578 16.5L21.3541 19.8962C21.5362 20.0917 21.6354 20.3503 21.6307 20.6174C21.626 20.8846 21.5178 21.1395 21.3288 21.3284C21.1399 21.5174 20.885 21.6256 20.6178 21.6303C20.3506 21.635 20.0921 21.5359 19.8966 21.3537L16.5003 17.9575L13.1041 21.3537C13.0097 21.455 12.8958 21.5363 12.7693 21.5927C12.6428 21.649 12.5063 21.6793 12.3678 21.6818C12.2293 21.6842 12.0918 21.6588 11.9634 21.6069C11.835 21.555 11.7183 21.4778 11.6204 21.3799C11.5225 21.282 11.4453 21.1653 11.3934 21.0369C11.3415 20.9085 11.3161 20.771 11.3185 20.6325C11.321 20.494 11.3513 20.3575 11.4076 20.231C11.464 20.1045 11.5453 19.9906 11.6466 19.8962L15.0428 16.5L11.6466 13.1037C11.4535 12.9104 11.345 12.6482 11.345 12.375C11.345 12.1017 11.4535 11.8396 11.6466 11.6462Z" fill="#FF6C6C"/>
<path fill-rule="evenodd" clip-rule="evenodd" d="M10.0601 5.18238C14.3397 4.70792 18.6587 4.70792 22.9383 5.18238C25.4504 5.46288 27.4786 7.4415 27.7728 9.96738C28.2816 14.3083 28.2816 18.6931 27.7728 23.034C27.4772 25.5599 25.4491 27.5371 22.9383 27.819C18.6587 28.2935 14.3397 28.2935 10.0601 27.819C7.54793 27.5371 5.51981 25.5599 5.22556 23.034C4.71909 18.6932 4.71909 14.3082 5.22556 9.96738C5.51981 7.4415 7.54931 5.46288 10.0601 5.18238ZM22.7101 7.23113C18.5821 6.77357 14.4162 6.77357 10.2883 7.23113C9.52414 7.31591 8.81087 7.65583 8.26373 8.19599C7.71658 8.73615 7.36752 9.44499 7.27293 10.208C6.78389 14.3893 6.78389 18.6134 7.27293 22.7948C7.36781 23.5575 7.717 24.266 8.26412 24.8059C8.81123 25.3458 9.52435 25.6855 10.2883 25.7703C14.3817 26.2268 18.6167 26.2268 22.7101 25.7703C23.4738 25.6853 24.1866 25.3454 24.7334 24.8055C25.2803 24.2657 25.6292 23.5573 25.7241 22.7948C26.2131 18.6134 26.2131 14.3893 25.7241 10.208C25.629 9.44569 25.2798 8.73764 24.733 8.19806C24.1862 7.65848 23.4736 7.31882 22.7101 7.23388" fill="#FF6C6C"/>
</svg>
