<svg width="24" height="24" viewBox="0 0 24 24" fill="none" xmlns="http://www.w3.org/2000/svg">
<path d="M21 11.003H20.824L19.001 5.66998L3.354 11.003L3 11M2.5 11.004H3L14.146 2.09998L16.963 6.04998" stroke="black" stroke-width="2" stroke-linecap="square"/>
<path d="M14.5 16C14.5 16.663 14.2366 17.2989 13.7678 17.7678C13.2989 18.2366 12.663 18.5 12 18.5C11.337 18.5 10.7011 18.2366 10.2322 17.7678C9.76339 17.2989 9.5 16.663 9.5 16C9.5 15.337 9.76339 14.7011 10.2322 14.2322C10.7011 13.7634 11.337 13.5 12 13.5C12.663 13.5 13.2989 13.7634 13.7678 14.2322C14.2366 14.7011 14.5 15.337 14.5 16Z" stroke="black" stroke-width="2" stroke-linecap="square"/>
<path d="M21.5 11V21H2.5V11H21.5Z" stroke="black" stroke-width="2" stroke-linecap="square"/>
<path d="M2.5 11H4.5C4.5 11.5304 4.28929 12.0391 3.91421 12.4142C3.53914 12.7893 3.03043 13 2.5 13V11ZM21.5 11H19.5C19.5 11.5304 19.7107 12.0391 20.0858 12.4142C20.4609 12.7893 20.9696 13 21.5 13V11ZM2.5 21H4.502C4.50226 20.737 4.45066 20.4766 4.35014 20.2336C4.24963 19.9905 4.10217 19.7697 3.91621 19.5838C3.73026 19.3978 3.50946 19.2504 3.26644 19.1499C3.02343 19.0493 2.76298 18.9977 2.5 18.998V21ZM21.5 21H19.5C19.5 20.4696 19.7107 19.9609 20.0858 19.5858C20.4609 19.2107 20.9696 19 21.5 19V21Z" stroke="black" stroke-width="2" stroke-linecap="square"/>
</svg>
