<svg width="24" height="24" viewBox="0 0 24 24" fill="none" xmlns="http://www.w3.org/2000/svg">
<g clip-path="url(#clip0_29_25)">
<path d="M17.125 10.8769H17.015L15.8756 7.54375L6.09625 10.8769L5.875 10.875M5.5625 10.8775H5.875L12.8412 5.3125L14.6019 7.78125" stroke="#3F3939" stroke-width="2" stroke-linecap="square"/>
<path d="M13.0625 14C13.0625 14.4144 12.8979 14.8118 12.6049 15.1049C12.3118 15.3979 11.9144 15.5625 11.5 15.5625C11.0856 15.5625 10.6882 15.3979 10.3951 15.1049C10.1021 14.8118 9.9375 14.4144 9.9375 14C9.9375 13.5856 10.1021 13.1882 10.3951 12.8951C10.6882 12.6021 11.0856 12.4375 11.5 12.4375C11.9144 12.4375 12.3118 12.6021 12.6049 12.8951C12.8979 13.1882 13.0625 13.5856 13.0625 14Z" stroke="#3F3939" stroke-width="2" stroke-linecap="square"/>
<path d="M17.4375 10.875V17.125H5.5625V10.875H17.4375Z" stroke="#3F3939" stroke-width="2" stroke-linecap="square"/>
<path d="M5.5625 10.875H6.8125C6.8125 11.2065 6.6808 11.5245 6.44638 11.7589C6.21196 11.9933 5.89402 12.125 5.5625 12.125V10.875ZM17.4375 10.875H16.1875C16.1875 11.2065 16.3192 11.5245 16.5536 11.7589C16.788 11.9933 17.106 12.125 17.4375 12.125V10.875ZM5.5625 17.125H6.81375C6.81391 16.9606 6.78166 16.7979 6.71884 16.646C6.65602 16.4941 6.56386 16.3561 6.44763 16.2399C6.33141 16.1236 6.19341 16.0315 6.04153 15.9687C5.88964 15.9058 5.72686 15.8736 5.5625 15.8737V17.125ZM17.4375 17.125H16.1875C16.1875 16.7935 16.3192 16.4755 16.5536 16.2411C16.788 16.0067 17.106 15.875 17.4375 15.875V17.125Z" stroke="#3F3939" stroke-width="2" stroke-linecap="square"/>
</g>
<circle opacity="0.2" cx="12" cy="12" r="11.5" fill="#7B7777" stroke="#3F3939"/>
<defs>
<clipPath id="clip0_29_25">
<rect width="15" height="15" fill="white" transform="translate(4 4)"/>
</clipPath>
</defs>
</svg>
