<svg width="25" height="25" viewBox="0 0 25 25" fill="none" xmlns="http://www.w3.org/2000/svg">
<path fill-rule="evenodd" clip-rule="evenodd" d="M2 6.89747C2 5.59858 2.51598 4.35289 3.43444 3.43444C4.35289 2.51598 5.59858 2 6.89747 2H12.0833C12.3508 2 12.6072 2.10623 12.7963 2.29533C12.9854 2.48443 13.0917 2.74091 13.0917 3.00833C13.0917 3.27576 12.9854 3.53223 12.7963 3.72133C12.6072 3.91043 12.3508 4.01667 12.0833 4.01667H6.89747C6.13344 4.01667 5.40069 4.32018 4.86044 4.86044C4.32018 5.40069 4.01667 6.13344 4.01667 6.89747V17.2692C4.01667 18.0332 4.32018 18.766 4.86044 19.3062C5.40069 19.8465 6.13344 20.15 6.89747 20.15H17.2692C18.0332 20.15 18.766 19.8465 19.3062 19.3062C19.8465 18.766 20.15 18.0332 20.15 17.2692V12.0833C20.15 11.8159 20.2562 11.5594 20.4453 11.3703C20.6344 11.1812 20.8909 11.075 21.1583 11.075C21.4258 11.075 21.6822 11.1812 21.8713 11.3703C22.0604 11.5594 22.1667 11.8159 22.1667 12.0833V17.2692C22.1667 18.5681 21.6507 19.8138 20.7322 20.7322C19.8138 21.6507 18.5681 22.1667 17.2692 22.1667H6.89747C5.59858 22.1667 4.35289 21.6507 3.43444 20.7322C2.51598 19.8138 2 18.5681 2 17.2692V6.89747Z" fill="#1B2F71"/>
<path fill-rule="evenodd" clip-rule="evenodd" d="M15.2478 13.3124L13.0244 14.6535L11.9828 12.9262L14.2062 11.5852L14.2092 11.5831C14.2944 11.5318 14.373 11.4702 14.4431 11.3996L19.4949 6.32165C19.5455 6.27064 19.5942 6.21784 19.6411 6.16335C19.9748 5.77413 20.4689 5.00376 19.871 4.4028C19.3658 3.8946 18.6418 4.37456 18.173 4.78697C18.0472 4.89785 17.9261 5.01391 17.81 5.13485L17.7757 5.16913L12.7945 10.1755C12.6762 10.2931 12.5835 10.4338 12.5223 10.5889L11.6914 12.6792C11.6756 12.7185 11.6727 12.7618 11.6829 12.8029C11.6931 12.8441 11.7161 12.8809 11.7484 12.9082C11.7808 12.9356 11.821 12.952 11.8632 12.9553C11.9055 12.9585 11.9466 12.9483 11.9828 12.9262L13.0244 14.6535C11.2044 15.7506 9.0314 13.9073 9.8179 11.933L10.6498 9.84376C10.8117 9.43549 11.0554 9.06458 11.3657 8.75375L16.3459 3.74637L16.3751 3.71713C16.5233 3.56588 17.0214 3.05566 17.6254 2.68863C17.9552 2.48999 18.4815 2.22681 19.1319 2.1764C19.878 2.1169 20.6746 2.35185 21.2998 2.98004C21.7783 3.45273 22.0792 4.07594 22.1518 4.74462C22.2018 5.26582 22.1221 5.79129 21.9199 6.27426C21.6275 6.99724 21.1395 7.52863 20.9247 7.7434L15.8729 12.8214C15.6847 13.0103 15.4763 13.174 15.2478 13.3124ZM19.7379 6.12705C19.7379 6.12705 19.7339 6.13007 19.7248 6.1331L19.7379 6.12705Z" fill="#1B2F71"/>
</svg>
