<svg width="24" height="24" viewBox="0 0 24 24" fill="none" xmlns="http://www.w3.org/2000/svg">
<g clip-path="url(#clip0_451_3112)">
<path d="M12 5.33325C15.682 5.33325 18.6666 8.31792 18.6666 11.9999C18.6666 15.6819 15.682 18.6665 12 18.6665C8.31798 18.6665 5.33331 15.6819 5.33331 11.9999C5.33331 8.31792 8.31798 5.33325 12 5.33325ZM12 7.99992C11.8232 7.99992 11.6536 8.07016 11.5286 8.19518C11.4036 8.32021 11.3333 8.48978 11.3333 8.66659V11.9999C11.3334 12.1767 11.4036 12.3462 11.5286 12.4712L13.5286 14.4712C13.6544 14.5927 13.8228 14.6598 13.9976 14.6583C14.1724 14.6568 14.3396 14.5867 14.4632 14.4631C14.5868 14.3395 14.6569 14.1723 14.6584 13.9975C14.6599 13.8227 14.5928 13.6543 14.4713 13.5285L12.6666 11.7239V8.66659C12.6666 8.48978 12.5964 8.32021 12.4714 8.19518C12.3464 8.07016 12.1768 7.99992 12 7.99992Z" fill="white"/>
</g>
<defs>
<clipPath id="clip0_451_3112">
<rect width="24" height="24" fill="white"/>
</clipPath>
</defs>
</svg>
