<svg width="24" height="24" viewBox="0 0 24 24" fill="none" xmlns="http://www.w3.org/2000/svg">
<rect width="24" height="24" rx="5" fill="black"/>
<path d="M12 5.33331C15.682 5.33331 18.6666 8.31798 18.6666 12C18.6666 15.682 15.682 18.6666 12 18.6666C8.31798 18.6666 5.33331 15.682 5.33331 12C5.33331 8.31798 8.31798 5.33331 12 5.33331ZM12 7.99998C11.8232 7.99998 11.6536 8.07022 11.5286 8.19524C11.4036 8.32027 11.3333 8.48984 11.3333 8.66665V12C11.3334 12.1768 11.4036 12.3463 11.5286 12.4713L13.5286 14.4713C13.6544 14.5928 13.8228 14.6599 13.9976 14.6584C14.1724 14.6569 14.3396 14.5868 14.4632 14.4632C14.5868 14.3396 14.6569 14.1724 14.6584 13.9976C14.6599 13.8228 14.5928 13.6544 14.4713 13.5286L12.6666 11.724V8.66665C12.6666 8.48984 12.5964 8.32027 12.4714 8.19524C12.3464 8.07022 12.1768 7.99998 12 7.99998Z" fill="white"/>
</svg>
