<svg width="24" height="24" viewBox="0 0 24 24" fill="none" xmlns="http://www.w3.org/2000/svg">
<circle opacity="0.2" cx="12" cy="12" r="11.5" fill="#7B7777" stroke="#3F3939"/>
<path d="M13.6958 4.81875L12.3958 6.125H13.752C15.0781 6.125 16.3499 6.65178 17.2875 7.58947C18.2252 8.52715 18.752 9.79892 18.752 11.125H17.502C17.502 10.1304 17.1069 9.17661 16.4037 8.47335C15.7004 7.77009 14.7466 7.375 13.752 7.375H12.3958L13.702 8.68125L12.8145 9.5625L10.002 6.75L10.8833 5.86875L12.8145 3.9375L13.6958 4.81875ZM6.25201 10.5V16.75H16.252V10.5H6.25201ZM7.50201 14.6V12.6562C7.87771 12.438 8.19006 12.1257 8.40826 11.75H14.0958C14.314 12.1257 14.6263 12.438 15.002 12.6562V14.6C14.6317 14.8182 14.3239 15.1282 14.1083 15.5H8.40826C8.1892 15.1266 7.87693 14.8165 7.50201 14.6ZM11.252 14.875C11.7695 14.875 12.1895 14.3156 12.1895 13.625C12.1895 12.9344 11.7695 12.375 11.252 12.375C10.7345 12.375 10.3145 12.9344 10.3145 13.625C10.3145 14.3156 10.7345 14.875 11.252 14.875Z" fill="#3F3939"/>
</svg>
