<svg width="24" height="24" viewBox="0 0 24 24" fill="none" xmlns="http://www.w3.org/2000/svg">
<circle opacity="0.2" cx="12" cy="12" r="11.5" fill="#7B7777" stroke="#343434"/>
<path d="M12.8714 19.5363L12.8639 19.5376L12.8195 19.5595L12.807 19.562L12.7983 19.5595L12.7539 19.537C12.7472 19.5353 12.7422 19.5365 12.7389 19.5407L12.7364 19.547L12.7258 19.8145L12.7289 19.827L12.7351 19.8351L12.8001 19.8813L12.8095 19.8838L12.817 19.8813L12.882 19.8351L12.8895 19.8251L12.892 19.8145L12.8814 19.5476C12.8797 19.5409 12.8764 19.5372 12.8714 19.5363ZM13.0364 19.4657L13.0276 19.467L12.9126 19.5251L12.9064 19.5313L12.9045 19.5382L12.9158 19.807L12.9189 19.8145L12.9239 19.8195L13.0495 19.877C13.0574 19.879 13.0635 19.8774 13.0676 19.872L13.0701 19.8632L13.0489 19.4795C13.0468 19.4715 13.0426 19.467 13.0364 19.4657ZM12.5895 19.467C12.5868 19.4653 12.5835 19.4647 12.5803 19.4655C12.5771 19.4662 12.5744 19.468 12.5726 19.4707L12.5689 19.4795L12.5476 19.8632C12.548 19.8707 12.5516 19.8757 12.5583 19.8782L12.5676 19.877L12.6933 19.8188L12.6995 19.8138L12.7014 19.807L12.7126 19.5382L12.7108 19.5307L12.7045 19.5245L12.5895 19.467Z" fill="#3F3939"/>
<path d="M15.6339 6.90944C15.7633 6.81715 15.9229 6.77759 16.0804 6.79881C16.2379 6.82003 16.3814 6.90044 16.4817 7.02367C16.582 7.14691 16.6316 7.30372 16.6204 7.46222C16.6092 7.62073 16.5381 7.76901 16.4214 7.87694L16.3602 7.92631L15.0471 8.86444C14.8584 8.99869 14.7116 9.18368 14.6238 9.39795C14.5359 9.61222 14.5106 9.847 14.5508 10.0751L14.5708 10.1701L16.6602 8.08069C16.7727 7.96859 16.9236 7.90352 17.0823 7.89867C17.241 7.89383 17.3956 7.94957 17.5148 8.05459C17.6338 8.15961 17.7085 8.30603 17.7236 8.46411C17.7386 8.62219 17.6929 8.78007 17.5958 8.90569L17.5439 8.96444L15.4546 11.0538C15.8952 11.1663 16.3827 11.0288 16.6958 10.6601L16.7602 10.5776L17.6983 9.26444C17.7909 9.13559 17.9289 9.04676 18.0846 9.01596C18.2402 8.98514 18.4017 9.01466 18.5363 9.09853C18.671 9.18239 18.7688 9.31432 18.8097 9.46758C18.8507 9.62083 18.8319 9.78393 18.7571 9.92381L18.7152 9.99069L17.7777 11.3044C17.4306 11.7898 16.9201 12.1337 16.34 12.2733C15.7599 12.4129 15.1489 12.3387 14.6189 12.0644L14.5064 12.0019L13.0708 13.4369L15.6689 16.0357C15.7766 16.1433 15.8412 16.2865 15.8508 16.4384C15.8603 16.5902 15.8141 16.7404 15.7208 16.8607L15.6689 16.9194C15.5613 17.0271 15.4181 17.0917 15.2663 17.1012C15.1144 17.1108 14.9642 17.0646 14.8439 16.9713L14.7852 16.9194L12.1871 14.3207L9.58894 16.9194C9.48132 17.0271 9.33813 17.0917 9.18624 17.1012C9.03435 17.1108 8.88419 17.0646 8.76394 16.9713L8.70519 16.9194C8.59758 16.8118 8.53293 16.6686 8.52338 16.5167C8.51383 16.3649 8.56003 16.2147 8.65331 16.0944L8.70519 16.0357L11.3033 13.4369L10.2971 12.4307C10.0324 12.5739 9.74648 12.6737 9.45019 12.7263L9.29394 12.7494C8.92001 12.7967 8.54021 12.7564 8.18454 12.6316C7.82887 12.5069 7.50708 12.3011 7.24456 12.0307C6.66394 11.4494 6.33206 10.7188 6.24956 10.0169C6.16831 9.32631 6.32456 8.58631 6.83081 8.08069C7.33644 7.57444 8.07581 7.41819 8.76644 7.49944C9.46831 7.58256 10.1996 7.91444 10.7802 8.49506C11.0506 8.75751 11.2563 9.0792 11.3809 9.43475C11.5057 9.7903 11.5461 10.17 11.4989 10.5438C11.4614 10.8594 11.3696 11.1588 11.2452 11.4194L11.1802 11.5469L12.1864 12.5532L13.6227 11.1182C13.3219 10.6042 13.2161 9.99928 13.3244 9.41375C13.4328 8.82822 13.748 8.30117 14.2127 7.92881L14.3202 7.84756L15.6339 6.90944Z" fill="#3F3939"/>
</svg>
