<svg width="24" height="24" viewBox="0 0 24 24" fill="none" xmlns="http://www.w3.org/2000/svg">
<path d="M12.5942 23.2582L12.5822 23.2602L12.5112 23.2952L12.4912 23.2992L12.4772 23.2952L12.4062 23.2592C12.3955 23.2565 12.3875 23.2585 12.3822 23.2652L12.3782 23.2752L12.3612 23.7032L12.3662 23.7232L12.3762 23.7362L12.4802 23.8102L12.4952 23.8142L12.5072 23.8102L12.6112 23.7362L12.6232 23.7202L12.6272 23.7032L12.6102 23.2762C12.6075 23.2655 12.6022 23.2595 12.5942 23.2582ZM12.8582 23.1452L12.8442 23.1472L12.6602 23.2402L12.6502 23.2502L12.6472 23.2612L12.6652 23.6912L12.6702 23.7032L12.6782 23.7112L12.8792 23.8032C12.8918 23.8065 12.9015 23.8038 12.9082 23.7952L12.9122 23.7812L12.8782 23.1672C12.8748 23.1545 12.8682 23.1472 12.8582 23.1452ZM12.1432 23.1472C12.1388 23.1445 12.1335 23.1436 12.1285 23.1448C12.1234 23.1459 12.119 23.1489 12.1162 23.1532L12.1102 23.1672L12.0762 23.7812C12.0768 23.7932 12.0825 23.8012 12.0932 23.8052L12.1082 23.8032L12.3092 23.7102L12.3192 23.7022L12.3222 23.6912L12.3402 23.2612L12.3372 23.2492L12.3272 23.2392L12.1432 23.1472Z" fill="#3F3939"/>
<path d="M17.0143 3.0551C17.2213 2.90744 17.4767 2.84415 17.7286 2.8781C17.9806 2.91205 18.2102 3.0407 18.3707 3.23787C18.5312 3.43505 18.6105 3.68595 18.5926 3.93955C18.5747 4.19316 18.4609 4.43042 18.2743 4.6031L18.1763 4.6821L16.0753 6.1831C15.7734 6.3979 15.5386 6.69388 15.398 7.03672C15.2575 7.37955 15.217 7.7552 15.2813 8.1201L15.3133 8.2721L18.6563 4.9291C18.8363 4.74975 19.0777 4.64563 19.3317 4.63787C19.5856 4.63012 19.833 4.71931 20.0236 4.88735C20.2141 5.05538 20.3336 5.28965 20.3577 5.54257C20.3818 5.7955 20.3087 6.04811 20.1533 6.2491L20.0703 6.3431L16.7273 9.6861C17.4323 9.8661 18.2123 9.6461 18.7133 9.0561L18.8163 8.9241L20.3173 6.8231C20.4654 6.61695 20.6863 6.47482 20.9353 6.42553C21.1843 6.37623 21.4427 6.42346 21.6581 6.55764C21.8736 6.69183 22.03 6.90291 22.0955 7.14812C22.1611 7.39332 22.131 7.65428 22.0113 7.8781L21.9443 7.9851L20.4443 10.0871C19.8889 10.8636 19.0722 11.414 18.144 11.6373C17.2158 11.8606 16.2382 11.742 15.3903 11.3031L15.2103 11.2031L12.9133 13.4991L17.0703 17.6571C17.2425 17.8293 17.3459 18.0584 17.3612 18.3014C17.3765 18.5444 17.3026 18.7847 17.1533 18.9771L17.0703 19.0711C16.8981 19.2433 16.669 19.3467 16.426 19.362C16.183 19.3773 15.9427 19.3033 15.7503 19.1541L15.6563 19.0711L11.4993 14.9131L7.3423 19.0711C7.17011 19.2433 6.94101 19.3467 6.69798 19.362C6.45496 19.3773 6.21471 19.3033 6.0223 19.1541L5.9283 19.0711C5.75613 18.8989 5.65269 18.6698 5.63741 18.4268C5.62213 18.1838 5.69605 17.9435 5.8453 17.7511L5.9283 17.6571L10.0853 13.4991L8.4753 11.8891C8.05185 12.1182 7.59436 12.2779 7.1203 12.3621L6.8703 12.3991C6.27201 12.4747 5.66433 12.4102 5.09526 12.2106C4.52619 12.011 4.01132 11.6818 3.5913 11.2491C2.6623 10.3191 2.1313 9.1501 1.9993 8.0271C1.8693 6.9221 2.1193 5.7381 2.9293 4.9291C3.7383 4.1191 4.9213 3.8691 6.0263 3.9991C7.1493 4.1321 8.3193 4.6631 9.2483 5.5921C9.68089 6.01201 10.01 6.52672 10.2095 7.0956C10.4091 7.66448 10.4737 8.27196 10.3983 8.8701C10.3383 9.3751 10.1913 9.8541 9.9923 10.2711L9.8883 10.4751L11.4983 12.0851L13.7963 9.7891C13.3151 8.96678 13.1458 7.99885 13.3191 7.062C13.4924 6.12515 13.9968 5.28187 14.7403 4.6861L14.9123 4.5561L17.0143 3.0551Z" fill="#3F3939"/>
</svg>
