<svg width="24" height="24" viewBox="0 0 24 24" fill="none" xmlns="http://www.w3.org/2000/svg">
<path d="M17.0143 3.05501C17.2213 2.90735 17.4767 2.84406 17.7286 2.87801C17.9806 2.91196 18.2102 3.04061 18.3707 3.23778C18.5312 3.43496 18.6105 3.68586 18.5926 3.93946C18.5747 4.19307 18.4609 4.43033 18.2743 4.60301L18.1763 4.68201L16.0753 6.18301C15.7734 6.39781 15.5386 6.69379 15.398 7.03662C15.2575 7.37946 15.217 7.75511 15.2813 8.12001L15.3133 8.27201L18.6563 4.92901C18.8363 4.74966 19.0777 4.64553 19.3317 4.63778C19.5856 4.63003 19.833 4.71922 20.0236 4.88726C20.2141 5.05529 20.3336 5.28956 20.3577 5.54248C20.3818 5.79541 20.3087 6.04802 20.1533 6.24901L20.0703 6.34301L16.7273 9.68601C17.4323 9.86601 18.2123 9.64601 18.7133 9.05601L18.8163 8.92401L20.3173 6.82301C20.4654 6.61686 20.6863 6.47473 20.9353 6.42543C21.1843 6.37614 21.4427 6.42337 21.6581 6.55755C21.8736 6.69173 22.03 6.90282 22.0955 7.14802C22.1611 7.39322 22.131 7.65419 22.0113 7.87801L21.9443 7.98501L20.4443 10.087C19.8889 10.8635 19.0722 11.4139 18.144 11.6372C17.2158 11.8605 16.2382 11.7419 15.3903 11.303L15.2103 11.203L12.9133 13.499L17.0703 17.657C17.2425 17.8292 17.3459 18.0583 17.3612 18.3013C17.3765 18.5444 17.3026 18.7846 17.1533 18.977L17.0703 19.071C16.8981 19.2432 16.669 19.3466 16.426 19.3619C16.183 19.3772 15.9427 19.3033 15.7503 19.154L15.6563 19.071L11.4993 14.913L7.3423 19.071C7.17011 19.2432 6.94101 19.3466 6.69798 19.3619C6.45496 19.3772 6.21471 19.3033 6.0223 19.154L5.9283 19.071C5.75613 18.8988 5.65269 18.6697 5.63741 18.4267C5.62213 18.1837 5.69605 17.9434 5.8453 17.751L5.9283 17.657L10.0853 13.499L8.4753 11.889C8.05185 12.1181 7.59436 12.2778 7.1203 12.362L6.8703 12.399C6.27201 12.4746 5.66433 12.4101 5.09526 12.2105C4.52619 12.0109 4.01132 11.6817 3.5913 11.249C2.6623 10.319 2.1313 9.15001 1.9993 8.02701C1.8693 6.92201 2.1193 5.73801 2.9293 4.92901C3.7383 4.11901 4.9213 3.86901 6.0263 3.99901C7.1493 4.13201 8.3193 4.66301 9.2483 5.59201C9.68089 6.01192 10.01 6.52662 10.2095 7.09551C10.4091 7.66439 10.4737 8.27187 10.3983 8.87001C10.3383 9.37501 10.1913 9.85401 9.9923 10.271L9.8883 10.475L11.4983 12.085L13.7963 9.78901C13.3151 8.96669 13.1458 7.99876 13.3191 7.06191C13.4924 6.12506 13.9968 5.28178 14.7403 4.68601L14.9123 4.55601L17.0143 3.05501Z" fill="#01BE17"/>
</svg>
