<svg width="24" height="24" viewBox="0 0 24 24" fill="none" xmlns="http://www.w3.org/2000/svg">
<path d="M20.4999 12C21.1629 12 21.7988 12.2634 22.2677 12.7322C22.7365 13.2011 22.9999 13.837 22.9999 14.5V20.5C22.9999 21.163 22.7365 21.7989 22.2677 22.2678C21.7988 22.7366 21.1629 23 20.4999 23H16.4999C15.8369 23 15.201 22.7366 14.7321 22.2678C14.2633 21.7989 13.9999 21.163 13.9999 20.5V14.5C13.9999 13.837 14.2633 13.2011 14.7321 12.7322C15.201 12.2634 15.8369 12 16.4999 12H20.4999ZM13.0359 14C13.0126 14.1633 13.0006 14.33 12.9999 14.5V15.5H4.25291C4.05417 15.5 3.86355 15.5789 3.72293 15.7193C3.58231 15.8598 3.50317 16.0503 3.50291 16.249V16.827C3.50391 17.363 3.69491 17.881 4.04291 18.288C5.29591 19.756 7.26191 20.501 9.99991 20.501C11.1292 20.4997 12.1292 20.3723 12.9999 20.119V20.5C12.9999 20.894 13.0659 21.272 13.1849 21.625C12.2296 21.875 11.1679 22.0003 9.99991 22.001C6.85391 22.001 4.46891 21.096 2.90191 19.261C2.32251 18.5824 2.00411 17.7193 2.00391 16.827V16.249C2.00417 15.6526 2.2412 15.0807 2.66292 14.659C3.08463 14.2373 3.65652 14.0003 4.25291 14H13.0359ZM16.9999 14C16.8673 14 16.7401 14.0527 16.6464 14.1465C16.5526 14.2402 16.4999 14.3674 16.4999 14.5C16.4999 14.6326 16.5526 14.7598 16.6464 14.8536C16.7401 14.9473 16.8673 15 16.9999 15H19.9999C20.1325 15 20.2597 14.9473 20.3535 14.8536C20.4472 14.7598 20.4999 14.6326 20.4999 14.5C20.4999 14.3674 20.4472 14.2402 20.3535 14.1465C20.2597 14.0527 20.1325 14 19.9999 14H16.9999ZM9.99991 2.005C10.6565 2.005 11.3067 2.13433 11.9133 2.38561C12.52 2.63688 13.0711 3.00518 13.5354 3.46947C13.9997 3.93376 14.368 4.48496 14.6193 5.09159C14.8706 5.69822 14.9999 6.3484 14.9999 7.005C14.9999 7.66161 14.8706 8.31179 14.6193 8.91842C14.368 9.52505 13.9997 10.0762 13.5354 10.5405C13.0711 11.0048 12.52 11.3731 11.9133 11.6244C11.3067 11.8757 10.6565 12.005 9.99991 12.005C8.67382 12.005 7.40205 11.4782 6.46437 10.5405C5.52669 9.60286 4.99991 8.33109 4.99991 7.005C4.99991 5.67892 5.52669 4.40715 6.46437 3.46947C7.40205 2.53179 8.67382 2.005 9.99991 2.005ZM9.99991 3.505C9.54028 3.505 9.08515 3.59553 8.66051 3.77143C8.23588 3.94732 7.85004 4.20513 7.52503 4.53013C7.20003 4.85514 6.94222 5.24097 6.76633 5.66561C6.59044 6.09025 6.49991 6.54538 6.49991 7.005C6.49991 7.46463 6.59044 7.91976 6.76633 8.3444C6.94222 8.76904 7.20003 9.15487 7.52503 9.47988C7.85004 9.80488 8.23588 10.0627 8.66051 10.2386C9.08515 10.4145 9.54028 10.505 9.99991 10.505C10.9282 10.505 11.8184 10.1363 12.4748 9.47988C13.1312 8.8235 13.4999 7.93326 13.4999 7.005C13.4999 6.07675 13.1312 5.18651 12.4748 4.53013C11.8184 3.87375 10.9282 3.505 9.99991 3.505Z" fill="black"/>
</svg>
