<svg width="24" height="24" viewBox="0 0 24 24" fill="none" xmlns="http://www.w3.org/2000/svg">
<circle opacity="0.2" cx="12" cy="12" r="11.5" fill="#7B7777" stroke="#3F3939"/>
<path d="M12.395 17.5L7.5 12.605V13.605C7.5 13.87 7.605 14.125 7.795 14.31L11.69 18.205C12.08 18.595 12.715 18.595 13.105 18.205L16.21 15.1C16.6 14.71 16.6 14.075 16.21 13.685L12.395 17.5Z" fill="#3F3939"/>
<path d="M11.69 15.705C12.08 16.095 12.715 16.095 13.105 15.705L16.21 12.6C16.6 12.21 16.6 11.575 16.21 11.185L12.315 7.29C12.1251 7.10465 11.8704 7.00062 11.605 7H8.5C7.95 7 7.5 7.45 7.5 8V11.105C7.5 11.37 7.605 11.625 7.795 11.81L11.69 15.705ZM9.625 8.5C9.79076 8.5 9.94973 8.56585 10.0669 8.68306C10.1842 8.80027 10.25 8.95924 10.25 9.125C10.25 9.29076 10.1842 9.44973 10.0669 9.56694C9.94973 9.68415 9.79076 9.75 9.625 9.75C9.45924 9.75 9.30027 9.68415 9.18306 9.56694C9.06585 9.44973 9 9.29076 9 9.125C9 8.95924 9.06585 8.80027 9.18306 8.68306C9.30027 8.56585 9.45924 8.5 9.625 8.5Z" fill="#3F3939"/>
</svg>
