<svg width="20" height="20" viewBox="0 0 20 20" fill="none" xmlns="http://www.w3.org/2000/svg">
<path d="M16.6667 9.99999V4.79082C16.6667 4.72504 16.6538 4.6599 16.6286 4.59913C16.6035 4.53835 16.5665 4.48314 16.52 4.43666L13.8967 1.81332C13.803 1.71953 13.6759 1.66677 13.5433 1.66666H3.83334C3.70073 1.66666 3.57355 1.71933 3.47978 1.8131C3.38601 1.90687 3.33334 2.03405 3.33334 2.16666V17.8333C3.33334 17.9659 3.38601 18.0931 3.47978 18.1869C3.57355 18.2806 3.70073 18.3333 3.83334 18.3333H9.16667M6.66667 8.33332H13.3333M6.66667 4.99999H10M6.66667 11.6667H9.16667M14.9617 14.1167L15.795 13.2833C15.8817 13.1964 15.9847 13.1274 16.0981 13.0804C16.2115 13.0333 16.3331 13.0091 16.4558 13.0091C16.5786 13.0091 16.7002 13.0333 16.8136 13.0804C16.927 13.1274 17.03 13.1964 17.1167 13.2833C17.2035 13.37 17.2723 13.473 17.3193 13.5863C17.3663 13.6996 17.3905 13.8211 17.3905 13.9437C17.3905 14.0664 17.3663 14.1879 17.3193 14.3012C17.2723 14.4145 17.2035 14.5175 17.1167 14.6042L16.2833 15.4375L14.9617 14.1158L12.4692 16.6083C12.3445 16.7333 12.2628 16.8947 12.2358 17.0692L12.0325 18.3667L13.33 18.1642C13.5044 18.1372 13.6658 18.0554 13.7908 17.9308L16.2825 15.4375" stroke="#3A3A38" stroke-width="1.5" stroke-linecap="round" stroke-linejoin="round"/>
<path d="M13.3333 1.66666V4.49999C13.3333 4.6326 13.386 4.75977 13.4798 4.85354C13.5736 4.94731 13.7007 4.99999 13.8333 4.99999H16.6667" stroke="#3A3A38" stroke-width="1.5" stroke-linecap="round" stroke-linejoin="round"/>
</svg>
