<svg width="24" height="24" viewBox="0 0 24 24" fill="none" xmlns="http://www.w3.org/2000/svg">
<circle opacity="0.2" cx="12" cy="12" r="11.5" fill="#7B7777" stroke="#3F3939"/>
<path d="M12.7499 4.75V6H13.7349C14.0389 6 14.3379 6.08 14.6019 6.231L15.8919 6.967C15.9306 6.989 15.9719 7 16.0159 7H18.2499C18.4488 7 18.6396 7.07902 18.7802 7.21967C18.9209 7.36032 18.9999 7.55109 18.9999 7.75C18.9999 7.94891 18.9209 8.13968 18.7802 8.28033C18.6396 8.42098 18.4488 8.5 18.2499 8.5H17.8229L19.9339 13.192C19.9963 13.3308 20.015 13.4853 19.9875 13.635C19.96 13.7847 19.8876 13.9224 19.7799 14.03L19.2499 13.5L19.7789 14.031L19.7779 14.033L19.7759 14.035L19.7699 14.041L19.7639 14.046L19.7539 14.056L19.7089 14.096C19.4976 14.2727 19.2689 14.4227 19.0229 14.546C18.5559 14.78 17.8799 15 16.9999 15C16.2994 15.0082 15.6067 14.8527 14.9769 14.546C14.7314 14.4234 14.5011 14.2724 14.2909 14.096L14.2459 14.056L14.2299 14.041L14.2239 14.035L14.2199 14.031V14.03C14.1122 13.9224 14.0399 13.7847 14.0124 13.635C13.9848 13.4853 14.0035 13.3308 14.0659 13.192L16.1779 8.5H16.0159C15.7109 8.5 15.4119 8.421 15.1479 8.269L13.8579 7.533C13.8201 7.5114 13.7774 7.50002 13.7339 7.5H12.7499V17H15.2499C15.4488 17 15.6396 17.079 15.7802 17.2197C15.9209 17.3603 15.9999 17.5511 15.9999 17.75C15.9999 17.9489 15.9209 18.1397 15.7802 18.2803C15.6396 18.421 15.4488 18.5 15.2499 18.5H8.74991C8.55099 18.5 8.36023 18.421 8.21958 18.2803C8.07892 18.1397 7.99991 17.9489 7.99991 17.75C7.99991 17.5511 8.07892 17.3603 8.21958 17.2197C8.36023 17.079 8.55099 17 8.74991 17H11.2499V7.5H10.2659C10.2224 7.50002 10.1797 7.5114 10.1419 7.533L8.85291 8.27C8.58791 8.42 8.28891 8.5 7.98391 8.5H7.82191L9.93391 13.192C9.99629 13.3308 10.015 13.4853 9.98746 13.635C9.95995 13.7847 9.88756 13.9224 9.77991 14.03L9.24991 13.5L9.77891 14.031L9.77791 14.033L9.77591 14.035L9.76991 14.041L9.75391 14.056L9.70891 14.096C9.49757 14.2727 9.26891 14.4227 9.02291 14.546C8.55591 14.78 7.87991 15 6.99991 15C6.29943 15.0082 5.60671 14.8527 4.97691 14.546C4.73139 14.4234 4.50114 14.2724 4.29091 14.096L4.24591 14.056L4.22991 14.041L4.22391 14.035L4.21991 14.031V14.03C4.11225 13.9224 4.03986 13.7847 4.01235 13.635C3.98485 13.4853 4.00352 13.3308 4.06591 13.192L6.17791 8.5H5.74991C5.55099 8.5 5.36023 8.42098 5.21958 8.28033C5.07892 8.13968 4.99991 7.94891 4.99991 7.75C4.99991 7.55109 5.07892 7.36032 5.21958 7.21967C5.36023 7.07902 5.55099 7 5.74991 7H7.98391C8.02775 7.00015 8.07085 6.98877 8.10891 6.967L9.39691 6.23C9.66191 6.08 9.96091 6 10.2659 6H11.2499V4.75C11.2499 4.55109 11.3289 4.36032 11.4696 4.21967C11.6102 4.07902 11.801 4 11.9999 4C12.1988 4 12.3896 4.07902 12.5302 4.21967C12.6709 4.36032 12.7499 4.55109 12.7499 4.75ZM15.6949 13.227C15.9799 13.362 16.4129 13.5 16.9999 13.5C17.5869 13.5 18.0199 13.362 18.3049 13.227L16.9999 10.327L15.6949 13.227ZM5.69491 13.227C5.97991 13.362 6.41291 13.5 6.99991 13.5C7.58691 13.5 8.01991 13.362 8.30491 13.227L6.99991 10.327L5.69491 13.227Z" fill="#3F3939"/>
</svg>
