<svg width="24" height="24" viewBox="0 0 24 24" fill="none" xmlns="http://www.w3.org/2000/svg">
<circle opacity="0.2" cx="12" cy="12" r="11.5" fill="#7B7777" stroke="#3F3939"/>
<g clip-path="url(#clip0_224_2)">
<path d="M10.375 6.875C10.7175 6.875 11.0317 7.003 11.2605 7.2395C11.4892 7.47625 11.625 7.81425 11.625 8.222C11.625 8.62775 11.491 9.035 11.2725 9.34325C11.055 9.65 10.74 9.875 10.375 9.875C10.01 9.875 9.695 9.65 9.4775 9.34325C9.259 9.035 9.125 8.62775 9.125 8.22225C9.125 7.81425 9.26075 7.47625 9.48975 7.2395C9.71825 7.003 10.0325 6.875 10.375 6.875ZM7.625 9.125C7.9675 9.125 8.28175 9.253 8.5105 9.4895C8.73925 9.72625 8.875 10.0643 8.875 10.472C8.875 10.8778 8.741 11.285 8.5225 11.5932C8.305 11.9 7.99 12.125 7.625 12.125C7.26 12.125 6.945 11.9 6.7275 11.5932C6.509 11.285 6.375 10.8775 6.375 10.4722C6.375 10.0642 6.51075 9.72625 6.73975 9.4895C6.96825 9.253 7.2825 9.125 7.625 9.125ZM12 10.875C10.219 10.875 8.7435 12.3912 8.279 14.2925C8.073 15.136 8.38725 16.0407 9.16225 16.4695C9.778 16.8105 10.6995 17.125 11.9998 17.125C13.3003 17.125 14.2218 16.8105 14.8378 16.4695C15.6125 16.0407 15.9267 15.136 15.7207 14.2928C15.2565 12.3913 13.7808 10.875 12 10.875ZM16.375 9.125C16.0325 9.125 15.7182 9.253 15.4897 9.4895C15.2607 9.72625 15.125 10.0643 15.125 10.472C15.125 10.8778 15.259 11.285 15.4775 11.5932C15.695 11.9 16.01 12.125 16.375 12.125C16.74 12.125 17.055 11.9 17.2725 11.5932C17.491 11.285 17.625 10.8777 17.625 10.4722C17.625 10.0642 17.4892 9.72625 17.2605 9.4895C17.0317 9.253 16.7175 9.125 16.375 9.125ZM13.625 6.875C13.2825 6.875 12.9682 7.003 12.7397 7.2395C12.5107 7.47625 12.375 7.81425 12.375 8.222C12.375 8.62775 12.509 9.035 12.7275 9.34325C12.945 9.65 13.26 9.875 13.625 9.875C13.99 9.875 14.305 9.65 14.5225 9.34325C14.741 9.035 14.875 8.62775 14.875 8.22225C14.875 7.81425 14.7392 7.47625 14.5105 7.2395C14.2817 7.003 13.9675 6.875 13.625 6.875Z" fill="#3F3939"/>
</g>
<defs>
<clipPath id="clip0_224_2">
<rect width="12" height="12" fill="white" transform="translate(6 6)"/>
</clipPath>
</defs>
</svg>
