<svg width="24" height="24" viewBox="0 0 24 24" fill="none" xmlns="http://www.w3.org/2000/svg">
<path d="M22.0008 12.5C22.0008 12.009 21.9958 11.017 21.9848 10.524C21.9198 7.45902 21.8868 5.92602 20.7558 4.79102C19.6248 3.65502 18.0508 3.61602 14.9018 3.53702C12.9681 3.48823 11.0335 3.48823 9.09979 3.53702C5.95079 3.61602 4.37679 3.65502 3.24579 4.79102C2.11479 5.92602 2.08179 7.45902 2.01579 10.524C1.99474 11.5079 1.99474 12.4921 2.01579 13.476C2.08179 16.541 2.11479 18.074 3.24579 19.209C4.37679 20.345 5.95079 20.384 9.09979 20.463C9.90246 20.483 10.7028 20.495 11.5008 20.499" stroke="black" stroke-width="1.5" stroke-linecap="round" stroke-linejoin="round"/>
<path d="M7 8.5L9.942 10.24C11.657 11.254 12.342 11.254 14.058 10.24L17 8.5M14 17.5H22M14 17.5C14 16.8 15.994 15.492 16.5 15M14 17.5C14 18.2 15.994 19.509 16.5 20" stroke="black" stroke-width="1.5" stroke-linecap="round" stroke-linejoin="round"/>
</svg>
