<svg width="24" height="24" viewBox="0 0 24 24" fill="none" xmlns="http://www.w3.org/2000/svg">
<path d="M17.998 3C18.2632 3 18.5176 3.10536 18.7051 3.29289C18.8926 3.48043 18.998 3.73478 18.998 4V20C18.998 20.2652 18.8926 20.5196 18.7051 20.7071C18.5176 20.8946 18.2632 21 17.998 21H5.99799C5.73277 21 5.47842 20.8946 5.29088 20.7071C5.10334 20.5196 4.99799 20.2652 4.99799 20V4C4.99799 3.73478 5.10334 3.48043 5.29088 3.29289C5.47842 3.10536 5.73277 3 5.99799 3H17.998ZM16.998 5H6.99799V19H16.998V5ZM14.998 11V13H12.998V11H14.998Z" fill="#959292"/>
</svg>
