<svg width="22" height="23" viewBox="0 0 22 23" fill="none" xmlns="http://www.w3.org/2000/svg">
<path d="M7.15603 22H14.5433M10.8497 14.125V22M7.15603 7.5625H14.5433M1 3.625C1 2.92881 1.25943 2.26113 1.72122 1.76884C2.18302 1.27656 2.80934 1 3.46241 1H18.2369C18.89 1 19.5163 1.27656 19.9781 1.76884C20.4399 2.26113 20.6993 2.92881 20.6993 3.625V11.5C20.6993 12.1962 20.4399 12.8639 19.9781 13.3562C19.5163 13.8484 18.89 14.125 18.2369 14.125H3.46241C2.80934 14.125 2.18302 13.8484 1.72122 13.3562C1.25943 12.8639 1 12.1962 1 11.5V3.625Z" stroke="black" stroke-width="2" stroke-linecap="round" stroke-linejoin="round"/>
</svg>
