<svg width="24" height="24" viewBox="0 0 24 24" fill="none" xmlns="http://www.w3.org/2000/svg">
<circle opacity="0.2" cx="12" cy="12" r="11.5" fill="#7B7777" stroke="#343434"/>
<path d="M8.96666 6.33331C8.57082 6.33331 8.17499 6.50831 7.86624 6.83331C7.55749 7.15831 7.38332 7.54164 7.38332 7.99997V10.5C6.96374 10.5 6.59166 10.6583 6.26707 10.9917C5.94249 11.325 5.79999 11.725 5.79999 12.1667V16.3333H6.86082L7.38332 18H8.17499L8.72124 16.3333H15.585L16.0916 18H16.8834L17.4059 16.3333H18.4666V12.1667C18.4666 11.725 18.3163 11.3333 17.9996 10.9917C17.6829 10.65 17.3029 10.5 16.8834 10.5V7.99997C16.8834 7.54164 16.725 7.16664 16.4004 6.83331C16.0759 6.49997 15.6959 6.33331 15.3 6.33331M8.96666 7.99997H11.3416V10.5H8.96666M12.925 7.99997H15.3V10.5H12.925M7.38332 12.1667H16.8834V14.6667H7.38332V12.1667Z" fill="#3F3939"/>
</svg>
