<svg width="19" height="18" viewBox="0 0 19 18" fill="none" xmlns="http://www.w3.org/2000/svg">
<path d="M6.73924 13C4.85571 13 3.26179 12.3707 1.95749 11.112C0.653188 9.85333 0.000691752 8.316 5.48574e-07 6.5C-0.000690655 4.684 0.651806 3.14667 1.95749 1.888C3.26317 0.629333 4.85709 0 6.73924 0C8.62138 0 10.2156 0.629333 11.522 1.888C12.8284 3.14667 13.4805 4.684 13.4785 6.5C13.4785 7.23333 13.3575 7.925 13.1156 8.575C12.8737 9.225 12.5453 9.8 12.1306 10.3L17.9367 15.9C18.1268 16.0833 18.2219 16.3167 18.2219 16.6C18.2219 16.8833 18.1268 17.1167 17.9367 17.3C17.7467 17.4833 17.5047 17.575 17.211 17.575C16.9172 17.575 16.6753 17.4833 16.4852 17.3L10.6791 11.7C10.1607 12.1 9.56453 12.4167 8.89061 12.65C8.21669 12.8833 7.49956 13 6.73924 13ZM6.73924 11C8.03524 11 9.13702 10.5627 10.0446 9.688C10.9521 8.81333 11.4056 7.75067 11.4049 6.5C11.4042 5.24933 10.9507 4.187 10.0446 3.313C9.13841 2.439 8.03663 2.00133 6.73924 2C5.44185 1.99867 4.34041 2.43633 3.43494 3.313C2.52946 4.18967 2.07569 5.252 2.07361 6.5C2.07154 7.748 2.52531 8.81067 3.43494 9.688C4.34456 10.5653 5.44599 11.0027 6.73924 11Z" fill="#939090"/>
</svg>
