<svg width="12" height="12" viewBox="0 0 12 12" fill="none" xmlns="http://www.w3.org/2000/svg">
<g clip-path="url(#clip0_267_6930)">
<path d="M9.19778 3.64238C9.13413 3.64238 9.07308 3.61709 9.02807 3.57208C8.98307 3.52707 8.95778 3.46603 8.95778 3.40238V3.04238H8.59778C8.53413 3.04238 8.47308 3.01709 8.42807 2.97208C8.38307 2.92707 8.35778 2.86603 8.35778 2.80238C8.35778 2.73873 8.38307 2.67768 8.42807 2.63267C8.47308 2.58766 8.53413 2.56238 8.59778 2.56238H9.19778C9.26143 2.56238 9.32248 2.58766 9.36748 2.63267C9.41249 2.67768 9.43778 2.73873 9.43778 2.80238V3.40238C9.43778 3.46603 9.41249 3.52707 9.36748 3.57208C9.32248 3.61709 9.26143 3.64238 9.19778 3.64238ZM7.5587 3.04238H6.51962C6.45597 3.04238 6.39492 3.01709 6.34991 2.97208C6.30491 2.92707 6.27962 2.86603 6.27962 2.80238C6.27962 2.73873 6.30491 2.67768 6.34991 2.63267C6.39492 2.58766 6.45597 2.56238 6.51962 2.56238H7.5587C7.62235 2.56238 7.6834 2.58766 7.7284 2.63267C7.77341 2.67768 7.7987 2.73873 7.7987 2.80238C7.7987 2.86603 7.77341 2.92707 7.7284 2.97208C7.6834 3.01709 7.62235 3.04238 7.5587 3.04238ZM5.48054 3.04238H4.44146C4.37781 3.04238 4.31676 3.01709 4.27175 2.97208C4.22675 2.92707 4.20146 2.86603 4.20146 2.80238C4.20146 2.73873 4.22675 2.67768 4.27175 2.63267C4.31676 2.58766 4.37781 2.56238 4.44146 2.56238H5.48054C5.54419 2.56238 5.60524 2.58766 5.65025 2.63267C5.69525 2.67768 5.72054 2.73873 5.72054 2.80238C5.72054 2.86603 5.69525 2.92707 5.65025 2.97208C5.60524 3.01709 5.54419 3.04238 5.48054 3.04238ZM2.8025 3.64238C2.73885 3.64238 2.6778 3.61709 2.63279 3.57208C2.58779 3.52707 2.5625 3.46603 2.5625 3.40238V2.80238C2.5625 2.73873 2.58779 2.67768 2.63279 2.63267C2.6778 2.58766 2.73885 2.56238 2.8025 2.56238H3.4025C3.46615 2.56238 3.5272 2.58766 3.57221 2.63267C3.61721 2.67768 3.6425 2.73873 3.6425 2.80238C3.6425 2.86603 3.61721 2.92707 3.57221 2.97208C3.5272 3.01709 3.46615 3.04238 3.4025 3.04238H3.0425V3.40238C3.0425 3.46603 3.01721 3.52707 2.97221 3.57208C2.9272 3.61709 2.86615 3.64238 2.8025 3.64238ZM2.8025 7.79858C2.73885 7.79858 2.6778 7.77329 2.63279 7.72828C2.58779 7.68327 2.5625 7.62223 2.5625 7.55858V6.5195C2.5625 6.45585 2.58779 6.3948 2.63279 6.34979C2.6778 6.30478 2.73885 6.2795 2.8025 6.2795C2.86615 6.2795 2.9272 6.30478 2.97221 6.34979C3.01721 6.3948 3.0425 6.45585 3.0425 6.5195V7.55858C3.0425 7.62223 3.01721 7.68327 2.97221 7.72828C2.9272 7.77329 2.86615 7.79858 2.8025 7.79858ZM2.8025 5.72042C2.73885 5.72042 2.6778 5.69513 2.63279 5.65012C2.58779 5.60511 2.5625 5.54407 2.5625 5.48042V4.44134C2.5625 4.37769 2.58779 4.31664 2.63279 4.27163C2.6778 4.22662 2.73885 4.20134 2.8025 4.20134C2.86615 4.20134 2.9272 4.22662 2.97221 4.27163C3.01721 4.31664 3.0425 4.37769 3.0425 4.44134V5.48042C3.0425 5.54407 3.01721 5.60511 2.97221 5.65012C2.9272 5.69513 2.86615 5.72042 2.8025 5.72042ZM3.4025 9.43766H2.8025C2.73885 9.43766 2.6778 9.41237 2.63279 9.36736C2.58779 9.32235 2.5625 9.26131 2.5625 9.19766V8.59766C2.5625 8.53401 2.58779 8.47296 2.63279 8.42795C2.6778 8.38294 2.73885 8.35766 2.8025 8.35766C2.86615 8.35766 2.9272 8.38294 2.97221 8.42795C3.01721 8.47296 3.0425 8.53401 3.0425 8.59766V8.95766H3.4025C3.46615 8.95766 3.5272 8.98294 3.57221 9.02795C3.61721 9.07296 3.6425 9.13401 3.6425 9.19766C3.6425 9.26131 3.61721 9.32235 3.57221 9.36736C3.5272 9.41237 3.46615 9.43766 3.4025 9.43766ZM7.5587 9.43766H6.51962C6.45597 9.43766 6.39492 9.41237 6.34991 9.36736C6.30491 9.32235 6.27962 9.26131 6.27962 9.19766C6.27962 9.13401 6.30491 9.07296 6.34991 9.02795C6.39492 8.98294 6.45597 8.95766 6.51962 8.95766H7.5587C7.62235 8.95766 7.6834 8.98294 7.7284 9.02795C7.77341 9.07296 7.7987 9.13401 7.7987 9.19766C7.7987 9.26131 7.77341 9.32235 7.7284 9.36736C7.6834 9.41237 7.62235 9.43766 7.5587 9.43766ZM5.48054 9.43766H4.44146C4.37781 9.43766 4.31676 9.41237 4.27175 9.36736C4.22675 9.32235 4.20146 9.26131 4.20146 9.19766C4.20146 9.13401 4.22675 9.07296 4.27175 9.02795C4.31676 8.98294 4.37781 8.95766 4.44146 8.95766H5.48054C5.54419 8.95766 5.60524 8.98294 5.65025 9.02795C5.69525 9.07296 5.72054 9.13401 5.72054 9.19766C5.72054 9.26131 5.69525 9.32235 5.65025 9.36736C5.60524 9.41237 5.54419 9.43766 5.48054 9.43766ZM9.19778 9.43766H8.59778C8.53413 9.43766 8.47308 9.41237 8.42807 9.36736C8.38307 9.32235 8.35778 9.26131 8.35778 9.19766C8.35778 9.13401 8.38307 9.07296 8.42807 9.02795C8.47308 8.98294 8.53413 8.95766 8.59778 8.95766H8.95778V8.59766C8.95778 8.53401 8.98307 8.47296 9.02807 8.42795C9.07308 8.38294 9.13413 8.35766 9.19778 8.35766C9.26143 8.35766 9.32248 8.38294 9.36748 8.42795C9.41249 8.47296 9.43778 8.53401 9.43778 8.59766V9.19766C9.43778 9.26131 9.41249 9.32235 9.36748 9.36736C9.32248 9.41237 9.26143 9.43766 9.19778 9.43766ZM9.19778 7.79858C9.13413 7.79858 9.07308 7.77329 9.02807 7.72828C8.98307 7.68327 8.95778 7.62223 8.95778 7.55858V6.5195C8.95778 6.45585 8.98307 6.3948 9.02807 6.34979C9.07308 6.30478 9.13413 6.2795 9.19778 6.2795C9.26143 6.2795 9.32248 6.30478 9.36748 6.34979C9.41249 6.3948 9.43778 6.45585 9.43778 6.5195V7.55858C9.43778 7.62223 9.41249 7.68327 9.36748 7.72828C9.32248 7.77329 9.26143 7.79858 9.19778 7.79858ZM9.19778 5.72042C9.13413 5.72042 9.07308 5.69513 9.02807 5.65012C8.98307 5.60511 8.95778 5.54407 8.95778 5.48042V4.44134C8.95778 4.37769 8.98307 4.31664 9.02807 4.27163C9.07308 4.22662 9.13413 4.20134 9.19778 4.20134C9.26143 4.20134 9.32248 4.22662 9.36748 4.27163C9.41249 4.31664 9.43778 4.37769 9.43778 4.44134V5.48042C9.43778 5.54407 9.41249 5.60511 9.36748 5.65012C9.32248 5.69513 9.26143 5.72042 9.19778 5.72042Z" fill="#33944D"/>
<path d="M10.8254 11.0659H1.17359C1.10994 11.0659 1.0489 11.0406 1.00389 10.9956C0.958879 10.9506 0.933594 10.8896 0.933594 10.8259V1.17408C0.933594 1.11043 0.958879 1.04939 1.00389 1.00438C1.0489 0.959368 1.10994 0.934082 1.17359 0.934082H10.8254C10.8891 0.934082 10.9501 0.959368 10.9951 1.00438C11.0401 1.04939 11.0654 1.11043 11.0654 1.17408V10.8259C11.0654 10.8896 11.0401 10.9506 10.9951 10.9956C10.9501 11.0406 10.8891 11.0659 10.8254 11.0659ZM1.41359 10.5859H10.5854V1.41408H1.41359V10.5859Z" fill="#33944D"/>
<path d="M10.8254 11.0659H1.17359C1.10994 11.0659 1.0489 11.0406 1.00389 10.9956C0.958879 10.9506 0.933594 10.8896 0.933594 10.8259V1.17408C0.933594 1.11043 0.958879 1.04939 1.00389 1.00438C1.0489 0.959368 1.10994 0.934082 1.17359 0.934082H10.8254C10.8891 0.934082 10.9501 0.959368 10.9951 1.00438C11.0401 1.04939 11.0654 1.11043 11.0654 1.17408V10.8259C11.0654 10.8896 11.0401 10.9506 10.9951 10.9956C10.9501 11.0406 10.8891 11.0659 10.8254 11.0659ZM1.41359 10.5859H10.5854V1.41408H1.41359V10.5859Z" fill="#33944D"/>
</g>
<defs>
<clipPath id="clip0_267_6930">
<rect width="12" height="12" fill="white"/>
</clipPath>
</defs>
</svg>
