<svg width="24" height="24" viewBox="0 0 24 24" fill="none" xmlns="http://www.w3.org/2000/svg">
<circle opacity="0.2" cx="12" cy="12" r="11.5" fill="#7B7777" stroke="#3F3939"/>
<path d="M10.25 6.75C8.31917 6.75 6.83167 8.31917 6.75 10.25V17.25H12V12.8517C12.6417 13.4292 13.4583 13.75 14.3333 13.75C16.2642 13.75 17.8333 12.1808 17.8333 10.25C17.8333 8.31917 16.2642 6.75 14.3333 6.75H10.25ZM10.25 7.91667H11.7317C11.1542 8.55833 10.8333 9.375 10.8333 10.25V12H10.25V12.5833H10.8333V16.0833H7.91667V12.5833H8.5V12H7.91667V10.25C7.91667 8.96083 8.96083 7.91667 10.25 7.91667ZM14.3333 7.91667C15.6225 7.91667 16.6667 8.96083 16.6667 10.25C16.6667 11.5392 15.6225 12.5833 14.3333 12.5833C13.0442 12.5833 12 11.5392 12 10.25C12 8.96083 13.0442 7.91667 14.3333 7.91667ZM14.3333 9.22917C13.7675 9.22917 13.3125 9.68417 13.3125 10.25C13.3125 10.8158 13.7675 11.2708 14.3333 11.2708C14.8992 11.2708 15.3542 10.8158 15.3542 10.25C15.3542 9.68417 14.8992 9.22917 14.3333 9.22917ZM9.08333 12V12.5833H9.66667V12H9.08333Z" fill="black"/>
</svg>
